<svg width="24" height="24" viewBox="0 0 24 24" fill="none" xmlns="http://www.w3.org/2000/svg">
<path d="M9 3C7.67392 3 6.40215 3.52678 5.46447 4.46447C4.52678 5.40215 4 6.67392 4 8C4 9.32608 4.52678 10.5979 5.46447 11.5355C6.40215 12.4732 7.67392 13 9 13C10.3261 13 11.5979 12.4732 12.5355 11.5355C13.4732 10.5979 14 9.32608 14 8C14 6.67392 13.4732 5.40215 12.5355 4.46447C11.5979 3.52678 10.3261 3 9 3ZM6 8C6 7.20435 6.31607 6.44129 6.87868 5.87868C7.44129 5.31607 8.20435 5 9 5C9.79565 5 10.5587 5.31607 11.1213 5.87868C11.6839 6.44129 12 7.20435 12 8C12 8.79565 11.6839 9.55871 11.1213 10.1213C10.5587 10.6839 9.79565 11 9 11C8.20435 11 7.44129 10.6839 6.87868 10.1213C6.31607 9.55871 6 8.79565 6 8ZM16.908 8.218C16.6268 8.0747 16.3156 8 16 8V6C16.6315 6.00004 17.2541 6.14961 17.8167 6.43647C18.3793 6.72333 18.866 7.13933 19.2369 7.65042C19.6079 8.16151 19.8526 8.75317 19.9509 9.37699C20.0493 10.0008 19.9985 10.639 19.8028 11.2395C19.6072 11.8399 19.2721 12.3855 18.825 12.8316C18.378 13.2776 17.8317 13.6115 17.2308 13.8058C16.6299 14.0002 15.9916 14.0495 15.368 13.9498C14.7444 13.8501 14.1533 13.6041 13.643 13.232L14.821 11.616C15.044 11.7783 15.2982 11.8927 15.5676 11.9521C15.837 12.0114 16.1157 12.0144 16.3863 11.9609C16.6569 11.9073 16.9134 11.7983 17.1399 11.6408C17.3663 11.4833 17.5578 11.2807 17.7021 11.0456C17.8465 10.8106 17.9407 10.5482 17.9787 10.275C18.0168 10.0018 17.998 9.72373 17.9234 9.45816C17.8488 9.1926 17.7201 8.94534 17.5454 8.73191C17.3706 8.51849 17.1536 8.34352 16.908 8.218ZM19.998 21C19.9977 19.9397 19.5764 18.923 18.8267 18.1733C18.077 17.4236 17.0603 17.0023 16 17.002V15C17.5912 15.0003 19.1172 15.6325 20.2423 16.7577C21.3675 17.8828 21.9997 19.4088 22 21H19.998ZM16 21H14C14 19.6739 13.4732 18.4021 12.5355 17.4645C11.5979 16.5268 10.3261 16 9 16C7.67392 16 6.40215 16.5268 5.46447 17.4645C4.52678 18.4021 4 19.6739 4 21H2C2 19.1435 2.7375 17.363 4.05025 16.0503C5.36301 14.7375 7.14348 14 9 14C10.8565 14 12.637 14.7375 13.9497 16.0503C15.2625 17.363 16 19.1435 16 21Z" fill="white"/>
</svg>
