<svg width="24" height="24" viewBox="0 0 24 24" fill="none" xmlns="http://www.w3.org/2000/svg">
<path d="M20.25 6.25H3.75C3.19772 6.25 2.75 6.69772 2.75 7.25V16.75C2.75 17.3023 3.19772 17.75 3.75 17.75H20.25C20.8023 17.75 21.25 17.3023 21.25 16.75V7.25C21.25 6.69772 20.8023 6.25 20.25 6.25Z" stroke="white" stroke-linecap="round" stroke-linejoin="round"/>
<path d="M17.75 20.25V3.75C17.75 3.19772 17.3023 2.75 16.75 2.75L7.25 2.75C6.69771 2.75 6.25 3.19772 6.25 3.75L6.25 20.25C6.25 20.8023 6.69771 21.25 7.25 21.25H16.75C17.3023 21.25 17.75 20.8023 17.75 20.25Z" stroke="white" stroke-linecap="round" stroke-linejoin="round"/>
<path d="M15.065 10.985L12.595 14.26M15.065 14.26L12.595 10.985M15.725 9.5H11.67L9.73002 14.5L8.27502 10.985" stroke="white" stroke-linecap="round" stroke-linejoin="round"/>
</svg>
