<svg width="24" height="24" viewBox="0 0 24 24" fill="none" xmlns="http://www.w3.org/2000/svg">
<g clip-path="url(#clip0_1_1627)">
<path d="M10.5428 23.91C8.40229 23.6325 6.19879 22.7145 4.59379 21.4297C0.980292 18.5467 -0.659958 13.992 0.277542 9.46872C0.679542 7.51572 1.72654 5.46072 3.06679 3.98022C4.05409 2.86909 5.24471 1.95697 6.57454 1.29297C8.34004 0.398216 10.0275 -0.00378418 12.0195 -0.00378418C13.449 -0.00378418 14.598 0.183716 15.9143 0.632966C17.6435 1.2261 19.2144 2.20618 20.5074 3.49852C21.8004 4.79085 22.7813 6.36132 23.3753 8.09022C24.0788 10.1527 24.207 12.348 23.7578 14.5237C23.3985 16.2427 22.4723 18.1762 21.3323 19.5742C20.8635 20.1525 19.785 21.1837 19.2188 21.6015C17.5248 22.8596 15.5325 23.6552 13.4378 23.91C12.8205 23.988 11.1405 23.9842 10.5435 23.91H10.5428ZM13.8128 22.9065C16.7365 22.4164 19.3459 20.7851 21.0668 18.3712C23.094 15.5235 23.637 11.703 22.4925 8.37147C22.2233 7.58997 21.555 6.28572 21.0668 5.59797C20.5238 4.82847 19.1798 3.48072 18.4065 2.93772C17.6565 2.40672 16.3793 1.76172 15.5078 1.47672C13.9347 0.954071 12.2642 0.79157 10.6198 1.00122C8.97546 1.21087 7.39921 1.78732 6.00754 2.68797C4.69817 3.54808 3.57891 4.66735 2.71879 5.97672C1.81837 7.36763 1.24204 8.94312 1.03239 10.5867C0.822733 12.2303 0.985119 13.9001 1.50754 15.4725C1.79629 16.3432 2.44129 17.625 2.96854 18.375C3.51529 19.1445 4.85929 20.4922 5.62879 21.0352C6.32029 21.5197 7.62079 22.1872 8.40229 22.461C10.1418 23.0519 12.0001 23.205 13.8128 22.9065ZM9.65629 18.8827C9.09555 18.7982 8.5576 18.6015 8.07454 18.3045C7.64104 18.027 4.36729 14.82 4.20754 14.5192C4.02379 14.1757 4.34404 13.5502 4.80154 13.359L5.01604 13.269L4.35604 12.597C3.99304 12.2257 3.64879 11.8312 3.59404 11.7217C3.46504 11.472 3.46129 10.9365 3.58204 10.698C3.63304 10.6005 3.75379 10.452 3.84754 10.3695C4.00804 10.2367 4.02304 10.1895 4.00804 9.85347C3.98854 9.55647 4.01554 9.43947 4.14454 9.21672C4.33204 8.89647 4.71904 8.68122 5.09779 8.67747C5.30854 8.67747 5.36329 8.65047 5.45329 8.49372C5.68804 8.08347 6.35929 7.93497 6.87154 8.18547L7.14904 8.31822L7.28554 8.18547C7.47304 8.01372 7.84804 7.86147 8.09404 7.86147C8.58604 7.86147 9.28129 8.42772 9.28129 8.82597C9.28129 9.30222 8.84779 9.38472 8.41804 8.99022C8.13304 8.72472 7.98829 8.69697 7.87129 8.88447C7.81279 8.97447 7.95304 9.14247 8.79304 9.98997C9.63304 10.8337 9.78529 11.0137 9.78529 11.1735C9.77865 11.2959 9.72652 11.4115 9.63912 11.4975C9.55171 11.5835 9.43533 11.6338 9.31279 11.6385C9.16054 11.6385 8.91079 11.4195 7.75804 10.2712C6.58204 9.09897 6.36754 8.91147 6.27379 8.97072C6.01954 9.13122 6.10579 9.24822 7.48054 10.6267C8.22679 11.3767 8.84029 12.0405 8.84029 12.1035C8.84029 12.2325 8.72329 12.471 8.62579 12.5332C8.54581 12.5683 8.4588 12.5845 8.37154 12.5805C8.21104 12.5842 7.96504 12.3615 6.65704 11.0572C5.34454 9.75222 5.10979 9.54147 5.01604 9.59997C4.75804 9.76422 4.84429 9.87747 6.34054 11.3812C7.15729 12.198 7.84054 12.9285 7.86004 13.0065C7.90279 13.1475 7.80904 13.3935 7.68454 13.479C7.60193 13.5141 7.51248 13.5302 7.42279 13.5262C7.26229 13.5262 7.05979 13.3507 5.97754 12.2685C4.93429 11.2252 4.69204 11.0107 4.55929 11.0227C4.18429 11.0655 4.31704 11.2335 6.25429 13.1752C7.93429 14.859 8.14879 15.0975 8.14879 15.273C8.15049 15.3374 8.13599 15.4012 8.10665 15.4586C8.0773 15.516 8.03403 15.5651 7.98079 15.6015C7.68004 15.84 7.56304 15.7852 6.80479 15.051C6.41779 14.6797 6.01954 14.3205 5.91379 14.2537C5.72254 14.1367 5.23804 14.0857 5.14804 14.1795C5.11654 14.2065 5.83129 14.961 6.73429 15.855C8.23804 17.343 8.40979 17.496 8.85154 17.7067C9.25849 17.9094 9.70668 18.0155 10.1613 18.0168C10.6159 18.0181 11.0647 17.9145 11.4728 17.7142C12.7343 17.1127 13.434 15.6517 13.0898 14.3272C12.918 13.6672 12.7028 13.3507 11.8358 12.456C10.836 11.4322 10.605 11.151 10.359 10.659C10.0853 10.1085 9.96829 9.57297 9.96829 8.90472C9.96829 8.18172 10.0425 7.85397 10.3628 7.17822C10.6673 6.53397 11.304 5.85822 11.9333 5.51022C13.1678 4.82247 14.793 4.88097 15.972 5.65122C16.2068 5.80347 17.0543 6.60072 18.1088 7.65897C19.6755 9.22947 19.8548 9.43272 19.8548 9.61197C19.8548 10.038 19.5068 10.5105 19.1205 10.608C18.9758 10.647 19.0035 10.686 19.6598 11.3542C20.0423 11.7412 20.3978 12.159 20.4525 12.288C20.6363 12.7297 20.5538 13.1587 20.2178 13.5105C20.046 13.6905 20.0228 13.7527 20.0183 14.112C20.0145 14.4285 19.9793 14.5612 19.854 14.7412C19.7551 14.8876 19.6227 15.0083 19.4677 15.0933C19.3127 15.1782 19.1397 15.2249 18.963 15.2295C18.7208 15.2295 18.6743 15.2527 18.5528 15.4365C18.279 15.8587 17.568 16.0065 17.1075 15.7335L16.8773 15.597L16.713 15.7575C16.35 16.1055 15.7635 16.152 15.3188 15.867C14.9595 15.6405 14.694 15.324 14.694 15.1245C14.694 14.949 14.9483 14.6595 15.1043 14.6595C15.2528 14.6595 15.4523 14.7765 15.6788 14.988C15.9053 15.2025 16.101 15.2025 16.1318 14.9842C16.1475 14.8672 15.96 14.6445 15.2018 13.8825C14.4045 13.0777 14.2523 12.894 14.2523 12.738C14.2505 12.6509 14.2666 12.5643 14.2995 12.4837C14.3858 12.3547 14.628 12.2647 14.7758 12.3037C14.8538 12.3232 15.5138 12.933 16.2368 13.6552C16.9635 14.382 17.6003 14.9752 17.6588 14.9752C17.8193 14.9752 17.9243 14.8147 17.85 14.6782C17.8148 14.616 17.2013 13.9867 16.4903 13.2757C15.3773 12.1665 15.1973 11.9595 15.1973 11.7952C15.1936 11.7068 15.2098 11.6186 15.2445 11.5372C15.3113 11.4397 15.5453 11.3227 15.678 11.3227C15.7365 11.3227 16.4708 12.006 17.3108 12.8422C18.8498 14.3737 18.963 14.4592 19.1235 14.2057C19.182 14.112 18.9713 13.8735 17.6663 12.5647C16.3185 11.2132 16.1393 11.01 16.1393 10.8345C16.1393 10.7137 16.194 10.5885 16.2803 10.5105C16.5653 10.2412 16.6515 10.296 18.0383 11.6745C19.3508 12.9832 19.4678 13.0687 19.6283 12.819C19.6868 12.7252 19.4213 12.4365 17.7923 10.803C16.0185 9.02172 15.8903 8.87697 15.8903 8.66997C15.8903 8.35722 16.0703 8.20872 16.4175 8.23272C16.4798 8.23647 16.8548 8.55297 17.2418 8.93172C17.6325 9.31047 18.054 9.66597 18.1793 9.72072C18.4253 9.82197 18.7103 9.83772 18.8318 9.75972C18.9488 9.68547 15.7065 6.49422 15.285 6.27147C14.9236 6.07641 14.5261 5.95737 14.117 5.92169C13.7079 5.88601 13.2958 5.93444 12.9061 6.06399C12.5164 6.19354 12.1573 6.40148 11.8509 6.67501C11.5446 6.94853 11.2975 7.28186 11.1248 7.65447C10.9215 8.08797 10.8945 8.21697 10.8668 8.77572C10.8435 9.30297 10.863 9.46722 10.9763 9.80322C11.1795 10.401 11.355 10.647 12.2655 11.577C13.2503 12.585 13.4378 12.8152 13.6875 13.3545C14.391 14.8545 14.094 16.5892 12.9338 17.745C12.051 18.6315 10.848 19.0455 9.65629 18.882V18.8827Z" fill="white"/>
</g>
<defs>
<clipPath id="clip0_1_1627">
<rect width="24" height="24" fill="white"/>
</clipPath>
</defs>
</svg>
